<svg xmlns="http://www.w3.org/2000/svg" width="1600" height="860" viewBox="0 0 1600 860">
<rect width="1600" height="860" fill="#07080a"/>
<style>text{font-family:JetBrains Mono,IBM Plex Mono,Cascadia Code,Consolas,monospace;fill:#7d8893}.t{fill:#f4f7f9;font-weight:700}.w{fill:#f4f7f9}.d{fill:#4c5661}</style>
<text x="56" y="64" font-size="24" class="t" text-anchor="start" letter-spacing="2">LANCET NANO v0.4.1  vs  v0.4.0</text>
<text x="56" y="94" font-size="13" class="" text-anchor="start" >Same model weights, size and speed. v0.4.1 asks about more commands (lower review threshold); blocking is unchanged.</text>
<rect x="1080" y="51" width="14" height="14" fill="#26e0ff"/>
<text x="1104" y="63" font-size="13" class="w" text-anchor="start" >LANCET Nano v0.4.0</text>
<rect x="1300" y="51" width="14" height="14" fill="#2dff9a"/>
<text x="1324" y="63" font-size="13" class="w" text-anchor="start" >LANCET Nano v0.4.1</text>
<line x1="40" x2="1560" y1="124" y2="124" stroke="#161a1f"/>
<text x="56" y="166" font-size="13" class="w" text-anchor="start" letter-spacing="1">TRIAGE SCORE AT THE SHIPPED THRESHOLDS (0-100)</text>
<line x1="100" x2="916" y1="690.0" y2="690.0" stroke="#161a1f"/>
<text x="90" y="694.0" font-size="11" class="d" text-anchor="end" >0</text>
<line x1="100" x2="916" y1="590.0" y2="590.0" stroke="#161a1f"/>
<text x="90" y="594.0" font-size="11" class="d" text-anchor="end" >20</text>
<line x1="100" x2="916" y1="490.0" y2="490.0" stroke="#161a1f"/>
<text x="90" y="494.0" font-size="11" class="d" text-anchor="end" >40</text>
<line x1="100" x2="916" y1="390.0" y2="390.0" stroke="#161a1f"/>
<text x="90" y="394.0" font-size="11" class="d" text-anchor="end" >60</text>
<line x1="100" x2="916" y1="290.0" y2="290.0" stroke="#161a1f"/>
<text x="90" y="294.0" font-size="11" class="d" text-anchor="end" >80</text>
<line x1="100" x2="916" y1="190.0" y2="190.0" stroke="#161a1f"/>
<text x="90" y="194.0" font-size="11" class="d" text-anchor="end" >100</text>
<rect x="164.0" y="245.0122249388753" width="48" height="444.9877750611247" fill="#26e0ff"/>
<text x="188.0" y="235.0122249388753" font-size="15" class="w" text-anchor="middle" >89.0</text>
<rect x="220.0" y="231.56479217603913" width="48" height="458.43520782396087" fill="#2dff9a"/>
<text x="244.0" y="221.56479217603913" font-size="15" class="w" text-anchor="middle" >91.7</text>
<text x="216.0" y="716" font-size="14" class="w" text-anchor="middle" >lancet-bench-1</text>
<text x="216.0" y="734" font-size="11" class="d" text-anchor="middle" >793 commands · weight 51%</text>
<text x="216.0" y="758" font-size="14" class="" text-anchor="middle" style="fill:#2dff9a">+2.7</text>
<rect x="364.0" y="386.8911917098445" width="48" height="303.1088082901555" fill="#26e0ff"/>
<text x="388.0" y="376.8911917098445" font-size="15" class="w" text-anchor="middle" >60.6</text>
<rect x="420.0" y="337.6683937823834" width="48" height="352.3316062176166" fill="#2dff9a"/>
<text x="444.0" y="327.6683937823834" font-size="15" class="w" text-anchor="middle" >70.5</text>
<text x="416.0" y="716" font-size="14" class="w" text-anchor="middle" >ShellRisk-Bench test</text>
<text x="416.0" y="734" font-size="11" class="d" text-anchor="middle" >4,194 commands · weight 36%</text>
<text x="416.0" y="758" font-size="14" class="" text-anchor="middle" style="fill:#2dff9a">+9.8</text>
<rect x="564.0" y="461.42857142857144" width="48" height="228.57142857142856" fill="#26e0ff"/>
<text x="588.0" y="451.42857142857144" font-size="15" class="w" text-anchor="middle" >45.7</text>
<rect x="620.0" y="570.952380952381" width="48" height="119.04761904761905" fill="#2dff9a"/>
<text x="644.0" y="560.952380952381" font-size="15" class="w" text-anchor="middle" >23.8</text>
<text x="616.0" y="716" font-size="14" class="w" text-anchor="middle" >Neutral set</text>
<text x="616.0" y="734" font-size="11" class="d" text-anchor="middle" >66 commands · weight 13%</text>
<text x="616.0" y="758" font-size="14" class="" text-anchor="middle" style="fill:#ff5a6a">-21.9</text>
<rect x="722.0" y="184" width="188.0" height="588" fill="none" stroke="#2dff9a" stroke-opacity=".35" stroke-dasharray="4 4"/>
<rect x="764.0" y="323.97744443637083" width="48" height="366.02255556362917" fill="#26e0ff"/>
<text x="788.0" y="313.97744443637083" font-size="15" class="w" text-anchor="middle" >73.2</text>
<rect x="820.0" y="313.2763945339471" width="48" height="376.7236054660529" fill="#2dff9a"/>
<text x="844.0" y="303.2763945339471" font-size="15" class="w" text-anchor="middle" >75.3</text>
<text x="816.0" y="716" font-size="14" class="w" text-anchor="middle" >Triage Score</text>
<text x="816.0" y="734" font-size="11" class="d" text-anchor="middle" >weighted by size</text>
<text x="816.0" y="758" font-size="14" class="" text-anchor="middle" style="fill:#2dff9a">+2.1</text>
<text x="980" y="166" font-size="13" class="w" text-anchor="start" letter-spacing="1">WHAT CHANGED</text>
<text x="980" y="190" font-size="11" class="d" text-anchor="start" letter-spacing="1">BENCHMARK</text>
<text x="1215" y="190" font-size="11" class="d" text-anchor="start" letter-spacing="1">MODEL</text>
<text x="1305" y="190" font-size="11" class="d" text-anchor="start" letter-spacing="1">CAUGHT</text>
<text x="1395" y="190" font-size="11" class="d" text-anchor="start" letter-spacing="1">STOPPED</text>
<text x="1485" y="190" font-size="11" class="d" text-anchor="start" letter-spacing="1">BLOCKED</text>
<text x="980" y="220" font-size="13" class="w" text-anchor="start" >lancet-bench-1</text>
<text x="1215" y="220" font-size="13" class="" text-anchor="start" style="fill:#26e0ff">v0.4.0</text>
<text x="1305" y="220" font-size="13" class="w" text-anchor="start" >89.0%</text>
<text x="1395" y="220" font-size="13" class="w" text-anchor="start" >6.2%</text>
<text x="1485" y="220" font-size="13" class="w" text-anchor="start" >67.0%</text>
<text x="1215" y="244" font-size="13" class="" text-anchor="start" style="fill:#2dff9a">v0.4.1</text>
<text x="1305" y="244" font-size="13" class="w" text-anchor="start" >91.7%</text>
<text x="1395" y="244" font-size="13" class="w" text-anchor="start" >9.4%</text>
<text x="1485" y="244" font-size="13" class="w" text-anchor="start" >67.0%</text>
<line x1="980" x2="1544" y1="256" y2="256" stroke="#161a1f"/>
<text x="980" y="280" font-size="13" class="w" text-anchor="start" >ShellRisk-Bench test</text>
<text x="1215" y="280" font-size="13" class="" text-anchor="start" style="fill:#26e0ff">v0.4.0</text>
<text x="1305" y="280" font-size="13" class="w" text-anchor="start" >60.6%</text>
<text x="1395" y="280" font-size="13" class="w" text-anchor="start" >2.3%</text>
<text x="1485" y="280" font-size="13" class="w" text-anchor="start" >23.8%</text>
<text x="1215" y="304" font-size="13" class="" text-anchor="start" style="fill:#2dff9a">v0.4.1</text>
<text x="1305" y="304" font-size="13" class="w" text-anchor="start" >70.5%</text>
<text x="1395" y="304" font-size="13" class="w" text-anchor="start" >3.1%</text>
<text x="1485" y="304" font-size="13" class="w" text-anchor="start" >23.8%</text>
<line x1="980" x2="1544" y1="316" y2="316" stroke="#161a1f"/>
<text x="980" y="340" font-size="13" class="w" text-anchor="start" >Neutral set</text>
<text x="1215" y="340" font-size="13" class="" text-anchor="start" style="fill:#26e0ff">v0.4.0</text>
<text x="1305" y="340" font-size="13" class="w" text-anchor="start" >57.1%</text>
<text x="1395" y="340" font-size="13" class="" text-anchor="start" style="fill:#ff5a6a">12.5%</text>
<text x="1485" y="340" font-size="13" class="w" text-anchor="start" >11.9%</text>
<text x="1215" y="364" font-size="13" class="" text-anchor="start" style="fill:#2dff9a">v0.4.1</text>
<text x="1305" y="364" font-size="13" class="w" text-anchor="start" >59.5%</text>
<text x="1395" y="364" font-size="13" class="" text-anchor="start" style="fill:#ff5a6a">25.0%</text>
<text x="1485" y="364" font-size="13" class="w" text-anchor="start" >11.9%</text>
<line x1="980" x2="1544" y1="376" y2="376" stroke="#161a1f"/>
<text x="980" y="410" font-size="12" class="d" text-anchor="start" >caught = risky commands asked about or blocked</text>
<text x="980" y="430" font-size="12" class="d" text-anchor="start" >stopped = safe commands asked about or blocked (red: over 10%)</text>
<text x="980" y="450" font-size="12" class="d" text-anchor="start" >blocked = risky commands blocked outright</text>
<line x1="40" x2="1560" y1="790" y2="790" stroke="#161a1f"/>
<text x="56" y="818" font-size="12" class="" text-anchor="start" >Triage Score: every risky command asked about or blocked earns a point; the score shrinks in proportion when more than 10% of safe commands are stopped.</text>
<text x="56" y="838" font-size="11" class="d" text-anchor="start" >ShellRisk-Bench (Kontext Security) test split; neutral set: rogue-security coding-agent-security-benchmark, Bash cases.</text>
</svg>