<svg xmlns="http://www.w3.org/2000/svg" width="1600" height="1054" viewBox="0 0 1600 1054">
<rect width="1600" height="1054" fill="#07080a"/>
<rect width="1600" height="4" fill="#2dff9a"/>
<style>text{font-family:JetBrains Mono,IBM Plex Mono,Cascadia Code,Consolas,monospace;fill:#7d8893}.hit:hover{opacity:.85}</style>
<rect x="56" y="44" width="12" height="12" fill="#2dff9a"/>
<text x="80.0" y="55.0" font-size="14" text-anchor="start" font-weight="400" style="fill:#7d8893" letter-spacing="3">TRIAGE SCORE · LANCET NANO VS OTHER COMMAND GUARDS</text>
<text x="56.0" y="100.0" font-size="28" text-anchor="start" font-weight="700" style="fill:#f4f7f9" >LANCET Nano v0.4.3 vs 13 other command guards</text>
<text x="56.0" y="130.0" font-size="13.5" text-anchor="start" font-weight="400" style="fill:#7d8893" >Triage Score (0-100, higher is better) on the same 7,911 commands from three benchmarks. Each guard scored once at its own shipped setting.</text>
<text x="430.0" y="204.0" font-size="12" text-anchor="start" font-weight="400" style="fill:#c9d1d8" letter-spacing="2">TRIAGE SCORE</text>
<text x="430.0" y="222.0" font-size="11.5" text-anchor="start" font-weight="400" style="fill:#59626c" >risky commands stopped, minus a penalty for interrupting safe work</text>
<text x="1330.0" y="204.0" font-size="12" text-anchor="end" font-weight="400" style="fill:#c9d1d8" letter-spacing="2">RISKY CAUGHT</text>
<text x="1330.0" y="222.0" font-size="11.5" text-anchor="end" font-weight="400" style="fill:#59626c" >higher is better</text>
<text x="1530.0" y="204.0" font-size="12" text-anchor="end" font-weight="400" style="fill:#c9d1d8" letter-spacing="2">SAFE STOPPED</text>
<text x="1530.0" y="222.0" font-size="11.5" text-anchor="end" font-weight="400" style="fill:#59626c" >red: more than 10%</text>
<line x1="430.0" x2="430.0" y1="232" y2="934" stroke="#1c2128"/>
<text x="430.0" y="954.0" font-size="12" text-anchor="middle" font-weight="400" style="fill:#59626c" >0</text>
<line x1="570.0" x2="570.0" y1="232" y2="934" stroke="#12161b"/>
<text x="570.0" y="954.0" font-size="12" text-anchor="middle" font-weight="400" style="fill:#59626c" >20</text>
<line x1="710.0" x2="710.0" y1="232" y2="934" stroke="#12161b"/>
<text x="710.0" y="954.0" font-size="12" text-anchor="middle" font-weight="400" style="fill:#59626c" >40</text>
<line x1="850.0" x2="850.0" y1="232" y2="934" stroke="#12161b"/>
<text x="850.0" y="954.0" font-size="12" text-anchor="middle" font-weight="400" style="fill:#59626c" >60</text>
<line x1="990.0" x2="990.0" y1="232" y2="934" stroke="#12161b"/>
<text x="990.0" y="954.0" font-size="12" text-anchor="middle" font-weight="400" style="fill:#59626c" >80</text>
<line x1="1130.0" x2="1130.0" y1="232" y2="934" stroke="#12161b"/>
<text x="1130.0" y="954.0" font-size="12" text-anchor="middle" font-weight="400" style="fill:#59626c" >100</text>
<rect x="40" y="234" width="1520" height="46" fill="#2dff9a" fill-opacity=".05"/>
<rect x="40" y="234" width="3" height="46" fill="#2dff9a"/>
<text x="56.0" y="254.0" font-size="16" text-anchor="start" font-weight="700" style="fill:#2dff9a" >LANCET Nano v0.4.3</text>
<text x="56.0" y="272.0" font-size="11.5" text-anchor="start" font-weight="400" style="fill:#59626c" >local · 111M · CPU · Bash, PowerShell, cmd</text>
<path class="hit" d="M430 237.0 H903.8 Q907.8 237.0 907.8 241.0 V255.0 Q907.8 259.0 903.8 259.0 H430 Z" fill="#2dff9a"><title>LANCET Nano v0.4.3: Triage Score 68.3 · risky caught 77.0% · safe stopped 9.0%</title></path>
<text x="919.8" y="254.0" font-size="18" text-anchor="start" font-weight="700" style="fill:#2dff9a" >68.3</text>
<text x="985.8" y="253.0" font-size="12.5" text-anchor="start" font-weight="400" style="fill:#c9d1d8" >1.8× the next best (Jev 38.9)</text>
<text x="1330.0" y="254.0" font-size="15" text-anchor="end" font-weight="700" style="fill:#f4f7f9" >77.0%</text>
<text x="1530.0" y="254.0" font-size="15" text-anchor="end" font-weight="700" style="fill:#f4f7f9" >9.0%</text>
<text x="56.0" y="304.0" font-size="16" text-anchor="start" font-weight="400" style="fill:#f4f7f9" >Jev</text>
<text x="56.0" y="322.0" font-size="11.5" text-anchor="start" font-weight="400" style="fill:#59626c" >hosted LLM · sees task context</text>
<path class="hit" d="M430 287.0 H698.4 Q702.4 287.0 702.4 291.0 V305.0 Q702.4 309.0 698.4 309.0 H430 Z" fill="#4a545e"><title>Jev: Triage Score 38.9 · risky caught 90.0% · safe stopped 23.4%</title></path>
<text x="714.4" y="304.0" font-size="15" text-anchor="start" font-weight="700" style="fill:#f4f7f9" >38.9</text>
<text x="1330.0" y="304.0" font-size="15" text-anchor="end" font-weight="400" style="fill:#c9d1d8" >90.0%</text>
<text x="1530.0" y="304.0" font-size="15" text-anchor="end" font-weight="400" style="fill:#ff6b6b" >23.4%</text>
<text x="56.0" y="354.0" font-size="16" text-anchor="start" font-weight="400" style="fill:#f4f7f9" >verdict-shell-safety</text>
<text x="56.0" y="372.0" font-size="11.5" text-anchor="start" font-weight="400" style="fill:#59626c" >local classifier · 151M · CPU</text>
<path class="hit" d="M430 337.0 H652.8 Q656.8 337.0 656.8 341.0 V355.0 Q656.8 359.0 652.8 359.0 H430 Z" fill="#4a545e"><title>verdict-shell-safety: Triage Score 32.4 · risky caught 56.3% · safe stopped 18.0%</title></path>
<text x="668.8" y="354.0" font-size="15" text-anchor="start" font-weight="700" style="fill:#f4f7f9" >32.4</text>
<text x="1330.0" y="354.0" font-size="15" text-anchor="end" font-weight="400" style="fill:#c9d1d8" >56.3%</text>
<text x="1530.0" y="354.0" font-size="15" text-anchor="end" font-weight="400" style="fill:#ff6b6b" >18.0%</text>
<text x="56.0" y="404.0" font-size="16" text-anchor="start" font-weight="400" style="fill:#f4f7f9" >Kestrel</text>
<text x="56.0" y="422.0" font-size="11.5" text-anchor="start" font-weight="400" style="fill:#59626c" >local linear classifier</text>
<path class="hit" d="M430 387.0 H640.8 Q644.8 387.0 644.8 391.0 V405.0 Q644.8 409.0 640.8 409.0 H430 Z" fill="#4a545e"><title>Kestrel: Triage Score 30.7 · risky caught 68.1% · safe stopped 37.1%</title></path>
<text x="656.8" y="404.0" font-size="15" text-anchor="start" font-weight="700" style="fill:#f4f7f9" >30.7</text>
<text x="1330.0" y="404.0" font-size="15" text-anchor="end" font-weight="400" style="fill:#c9d1d8" >68.1%</text>
<text x="1530.0" y="404.0" font-size="15" text-anchor="end" font-weight="400" style="fill:#ff6b6b" >37.1%</text>
<text x="56.0" y="454.0" font-size="16" text-anchor="start" font-weight="400" style="fill:#f4f7f9" >ModernBERT bash</text>
<text x="56.0" y="472.0" font-size="11.5" text-anchor="start" font-weight="400" style="fill:#59626c" >local classifier · 150M</text>
<path class="hit" d="M430 437.0 H588.7 Q592.7 437.0 592.7 441.0 V455.0 Q592.7 459.0 588.7 459.0 H430 Z" fill="#4a545e"><title>ModernBERT bash: Triage Score 23.2 · risky caught 48.1% · safe stopped 22.8%</title></path>
<text x="604.7" y="454.0" font-size="15" text-anchor="start" font-weight="700" style="fill:#f4f7f9" >23.2</text>
<text x="1330.0" y="454.0" font-size="15" text-anchor="end" font-weight="400" style="fill:#c9d1d8" >48.1%</text>
<text x="1530.0" y="454.0" font-size="15" text-anchor="end" font-weight="400" style="fill:#ff6b6b" >22.8%</text>
<text x="56.0" y="504.0" font-size="16" text-anchor="start" font-weight="400" style="fill:#f4f7f9" >dcg</text>
<text x="56.0" y="522.0" font-size="11.5" text-anchor="start" font-weight="400" style="fill:#59626c" >rules</text>
<path class="hit" d="M430 487.0 H564.5 Q568.5 487.0 568.5 491.0 V505.0 Q568.5 509.0 564.5 509.0 H430 Z" fill="#4a545e"><title>dcg: Triage Score 19.8 · risky caught 19.8% · safe stopped 6.9%</title></path>
<text x="580.5" y="504.0" font-size="15" text-anchor="start" font-weight="700" style="fill:#f4f7f9" >19.8</text>
<text x="1330.0" y="504.0" font-size="15" text-anchor="end" font-weight="400" style="fill:#c9d1d8" >19.8%</text>
<text x="1530.0" y="504.0" font-size="15" text-anchor="end" font-weight="400" style="fill:#c9d1d8" >6.9%</text>
<text x="56.0" y="554.0" font-size="16" text-anchor="start" font-weight="400" style="fill:#f4f7f9" >AutoShell-0.8B</text>
<text x="56.0" y="572.0" font-size="11.5" text-anchor="start" font-weight="400" style="fill:#59626c" >local LLM · 0.8B · GPU</text>
<path class="hit" d="M430 537.0 H560.7 Q564.7 537.0 564.7 541.0 V555.0 Q564.7 559.0 560.7 559.0 H430 Z" fill="#4a545e"><title>AutoShell-0.8B: Triage Score 19.2 · risky caught 98.8% · safe stopped 70.9%</title></path>
<text x="576.7" y="554.0" font-size="15" text-anchor="start" font-weight="700" style="fill:#f4f7f9" >19.2</text>
<text x="1330.0" y="554.0" font-size="15" text-anchor="end" font-weight="400" style="fill:#c9d1d8" >98.8%</text>
<text x="1530.0" y="554.0" font-size="15" text-anchor="end" font-weight="400" style="fill:#ff6b6b" >70.9%</text>
<text x="56.0" y="604.0" font-size="16" text-anchor="start" font-weight="400" style="fill:#f4f7f9" >Gyra</text>
<text x="56.0" y="622.0" font-size="11.5" text-anchor="start" font-weight="400" style="fill:#59626c" >local model + rules · 421M · GPU</text>
<path class="hit" d="M430 587.0 H551.0 Q555.0 587.0 555.0 591.0 V605.0 Q555.0 609.0 551.0 609.0 H430 Z" fill="#4a545e"><title>Gyra: Triage Score 17.9 · risky caught 28.2% · safe stopped 13.4%</title></path>
<text x="567.0" y="604.0" font-size="15" text-anchor="start" font-weight="700" style="fill:#f4f7f9" >17.9</text>
<text x="1330.0" y="604.0" font-size="15" text-anchor="end" font-weight="400" style="fill:#c9d1d8" >28.2%</text>
<text x="1530.0" y="604.0" font-size="15" text-anchor="end" font-weight="400" style="fill:#ff6b6b" >13.4%</text>
<text x="56.0" y="654.0" font-size="16" text-anchor="start" font-weight="400" style="fill:#f4f7f9" >bash-classify</text>
<text x="56.0" y="672.0" font-size="11.5" text-anchor="start" font-weight="400" style="fill:#59626c" >rules</text>
<path class="hit" d="M430 637.0 H525.8 Q529.8 637.0 529.8 641.0 V655.0 Q529.8 659.0 525.8 659.0 H430 Z" fill="#4a545e"><title>bash-classify: Triage Score 14.3 · risky caught 92.9% · safe stopped 65.8%</title></path>
<text x="541.8" y="654.0" font-size="15" text-anchor="start" font-weight="700" style="fill:#f4f7f9" >14.3</text>
<text x="1330.0" y="654.0" font-size="15" text-anchor="end" font-weight="400" style="fill:#c9d1d8" >92.9%</text>
<text x="1530.0" y="654.0" font-size="15" text-anchor="end" font-weight="400" style="fill:#ff6b6b" >65.8%</text>
<text x="56.0" y="704.0" font-size="16" text-anchor="start" font-weight="400" style="fill:#f4f7f9" >Laya</text>
<text x="56.0" y="722.0" font-size="11.5" text-anchor="start" font-weight="400" style="fill:#59626c" >local · 421M · GPU</text>
<path class="hit" d="M430 687.0 H519.2 Q523.2 687.0 523.2 691.0 V705.0 Q523.2 709.0 519.2 709.0 H430 Z" fill="#4a545e"><title>Laya: Triage Score 13.3 · risky caught 87.3% · safe stopped 69.6%</title></path>
<text x="535.2" y="704.0" font-size="15" text-anchor="start" font-weight="700" style="fill:#f4f7f9" >13.3</text>
<text x="1330.0" y="704.0" font-size="15" text-anchor="end" font-weight="400" style="fill:#c9d1d8" >87.3%</text>
<text x="1530.0" y="704.0" font-size="15" text-anchor="end" font-weight="400" style="fill:#ff6b6b" >69.6%</text>
<text x="56.0" y="754.0" font-size="16" text-anchor="start" font-weight="400" style="fill:#f4f7f9" >bev-decider</text>
<text x="56.0" y="772.0" font-size="11.5" text-anchor="start" font-weight="400" style="fill:#59626c" >local · 0.4B · GPU</text>
<path class="hit" d="M430 737.0 H519.1 Q523.1 737.0 523.1 741.0 V755.0 Q523.1 759.0 519.1 759.0 H430 Z" fill="#4a545e"><title>bev-decider: Triage Score 13.3 · risky caught 94.4% · safe stopped 75.3%</title></path>
<text x="535.1" y="754.0" font-size="15" text-anchor="start" font-weight="700" style="fill:#f4f7f9" >13.3</text>
<text x="1330.0" y="754.0" font-size="15" text-anchor="end" font-weight="400" style="fill:#c9d1d8" >94.4%</text>
<text x="1530.0" y="754.0" font-size="15" text-anchor="end" font-weight="400" style="fill:#ff6b6b" >75.3%</text>
<text x="56.0" y="804.0" font-size="16" text-anchor="start" font-weight="400" style="fill:#f4f7f9" >laya-cli-gate</text>
<text x="56.0" y="822.0" font-size="11.5" text-anchor="start" font-weight="400" style="fill:#59626c" >local · 421M · GPU</text>
<path class="hit" d="M430 787.0 H513.2 Q517.2 787.0 517.2 791.0 V805.0 Q517.2 809.0 513.2 809.0 H430 Z" fill="#4a545e"><title>laya-cli-gate: Triage Score 12.5 · risky caught 71.2% · safe stopped 57.5%</title></path>
<text x="529.2" y="804.0" font-size="15" text-anchor="start" font-weight="700" style="fill:#f4f7f9" >12.5</text>
<text x="1330.0" y="804.0" font-size="15" text-anchor="end" font-weight="400" style="fill:#c9d1d8" >71.2%</text>
<text x="1530.0" y="804.0" font-size="15" text-anchor="end" font-weight="400" style="fill:#ff6b6b" >57.5%</text>
<text x="56.0" y="854.0" font-size="16" text-anchor="start" font-weight="400" style="fill:#f4f7f9" >sh-guard</text>
<text x="56.0" y="872.0" font-size="11.5" text-anchor="start" font-weight="400" style="fill:#59626c" >rules</text>
<path class="hit" d="M430 837.0 H502.3 Q506.3 837.0 506.3 841.0 V855.0 Q506.3 859.0 502.3 859.0 H430 Z" fill="#4a545e"><title>sh-guard: Triage Score 10.9 · risky caught 97.9% · safe stopped 90.5%</title></path>
<text x="518.3" y="854.0" font-size="15" text-anchor="start" font-weight="700" style="fill:#f4f7f9" >10.9</text>
<text x="1330.0" y="854.0" font-size="15" text-anchor="end" font-weight="400" style="fill:#c9d1d8" >97.9%</text>
<text x="1530.0" y="854.0" font-size="15" text-anchor="end" font-weight="400" style="fill:#ff6b6b" >90.5%</text>
<text x="56.0" y="904.0" font-size="16" text-anchor="start" font-weight="400" style="fill:#f4f7f9" >Shieldstral-1.0-3B</text>
<text x="56.0" y="922.0" font-size="11.5" text-anchor="start" font-weight="400" style="fill:#59626c" >local LLM guard · 3B · GPU</text>
<path class="hit" d="M430 887.0 H468.4 Q472.4 887.0 472.4 891.0 V905.0 Q472.4 909.0 468.4 909.0 H430 Z" fill="#4a545e"><title>Shieldstral-1.0-3B: Triage Score 6.1 · risky caught 6.1% · safe stopped 0.2%</title></path>
<text x="484.4" y="904.0" font-size="15" text-anchor="start" font-weight="700" style="fill:#f4f7f9" >6.1</text>
<text x="1330.0" y="904.0" font-size="15" text-anchor="end" font-weight="400" style="fill:#c9d1d8" >6.1%</text>
<text x="1530.0" y="904.0" font-size="15" text-anchor="end" font-weight="400" style="fill:#c9d1d8" >0.2%</text>
<text x="56.0" y="1002.0" font-size="12" text-anchor="start" font-weight="400" style="fill:#7d8893" >Triage Score: every risky command asked about or blocked earns a point; a benchmark&#x27;s score shrinks in proportion when more than 10% of its</text>
<text x="56.0" y="1022.0" font-size="12" text-anchor="start" font-weight="400" style="fill:#7d8893" >safe commands are stopped. Rates are size-weighted across the three benchmarks. Jev also sees task context; Bash-only guards answer PowerShell and cmd as &quot;ask&quot;.</text>
</svg>
